<svg width="180" height="180" viewBox="0 0 180 180" fill="none" xmlns="http://www.w3.org/2000/svg">
<circle cx="90" cy="90" r="84" fill="#FFF5F3" stroke="#D9B7B4" stroke-width="5"/>
<path d="M100 50c0-15-12-27-27-27S46 35 46 50c0 9 4 17 11 22-10 6-17 17-17 30 0 20 16 36 36 36 11 0 21-5 28-14 5 7 13 11 22 11 15 0 27-12 27-27 0-14-10-25-23-27 6-5 9-12 9-20 0-13-11-24-24-24-6 0-11 2-15 5z" stroke="#7F716B" stroke-width="8" stroke-linecap="round" stroke-linejoin="round"/>
<path d="M79 82c10 0 19 8 19 19v16c0 9 7 16 16 16" stroke="#C8949B" stroke-width="8" stroke-linecap="round"/>
<path d="M70 56c12 3 23-3 30-13" stroke="#7F716B" stroke-width="7" stroke-linecap="round"/>
</svg>